<svg viewBox="0 0 32 32" className="w-14 h-14">
    <path
        d="M15.9.087l.854 1.604c.192.296.4.558.645.802.715.715 1.394 1.464 2.004 2.266 1.447 1.9 2.423 4.01 3.12 6.292.418 1.394.645 2.824.662 4.27.07 4.323-1.412 8.035-4.4 11.12-.488.488-1.01.94-1.57 1.342-.296 0-.436-.227-.558-.436-.227-.383-.366-.82-.436-1.255-.105-.523-.174-1.046-.14-1.586v-.244C16.057 24.21 15.796.21 15.9.087z"
        fill="#599636" />
    <path
        d="M15.9.034c-.035-.07-.07-.017-.105.017.017.35-.105 16.304-.105 16.304C14.846 16.8 14.03 15.9 13.127 15.16c-.8-.663-1.647-1.272-2.518-1.833-.366-.244-.73-.488-1.116-.662-.018-.35-.35-.105-.35-.14-.244.244-.523.523-.767.767-2.65 2.824-4.116 6.216-4.116 10.398 0 1.394.192 2.72.645 3.997.7 2.09 1.9 3.997 3.43 5.608 1.272 1.342 2.737 2.423 4.323 3.294.035-.035.07-.07.105-.105.21-.174.384-.383.558-.593h.07c.28.523.756.94 1.343 1.167.244.7.488.174.767.174h.035c.21 0 .38-.35.488-.105.105-.07.192-.14.21-.227h.017c.332-.663.442-1.412.442-2.162v-.349c0-1.86.105-3.718.105-5.608v-.953c0-.767.017-1.53-.035-2.266-.052-.632-.174-1.272-.296-1.9-.122-.6-.296-1.204-.488-1.784-.174-.558-.4-1.116-.645-1.655-.488-1.272-1.046-2.518-1.694-3.718-.453-.837-.884-1.695-1.412-2.475-.174-.244-.366-.488-.558-.714-.07-.07-.14-.174-.244-.21z"
        fill="#6cac48" />
</svg>